<!DOCTYPE svg PUBLIC "-//W3C//DTD SVG 1.1//EN" "http://www.w3.org/Graphics/SVG/1.1/DTD/svg11.dtd">
<!-- Uploaded to: SVG Repo, www.svgrepo.com, Transformed by: SVG Repo Mixer Tools -->
<svg height="800px" width="800px" version="1.1" id="Layer_1" xmlns="http://www.w3.org/2000/svg" xmlns:xlink="http://www.w3.org/1999/xlink" viewBox="-51.2 -51.2 614.40 614.40" xml:space="preserve" fill="#000000">

<g id="SVGRepo_bgCarrier" stroke-width="0"/>

<g id="SVGRepo_tracerCarrier" stroke-linecap="round" stroke-linejoin="round"/>

<g id="SVGRepo_iconCarrier"> <g> <path style="fill:#AC9D38;" d="M338.566,512H173.437c-12.906,0-23.367-10.461-23.367-23.367V245.831 c0-16.499,4.14-32.733,12.041-47.21l16.887-30.967c15.775-28.919,24.038-61.325,24.038-94.261v-2.772h105.931v2.772 c0,32.936,8.263,65.342,24.038,94.261l16.887,30.967c7.901,14.477,12.041,30.711,12.041,47.21v242.803 C361.933,501.539,351.472,512,338.566,512"/> <path style="fill:#D0BE44;" d="M307.934,70.621H204.068c-10.319,0-18.688-8.369-18.688-18.688V18.688 C185.38,8.369,193.749,0,204.068,0h103.865c10.319,0,18.688,8.369,18.688,18.688v33.245 C326.622,62.252,318.253,70.621,307.934,70.621"/> <path style="fill:#F5E050;" d="M153.378,220.69c-2.154,8.174-3.31,16.614-3.31,25.141v160.238h211.862V245.831 c0-8.527-1.148-16.967-3.31-25.141H153.378z"/> <g> <g transform="translate(177 231) scale(0.55)"> <path style="fill:#ffffff;" d="M296.033,108.22c0-37.967-30.877-68.855-68.83-68.855c-1.649,0-3.314,0.062-4.987,0.187C205.884,14.997,178.215,0,148.5,0 c-29.714,0-57.383,15-73.715,39.552c-1.673-0.125-3.338-0.187-4.987-0.187c-37.954,0-68.831,30.888-68.831,68.855 c0,34.637,25.704,63.368,59.031,68.142v95.157c0,14.051,11.43,25.481,25.48,25.481h126.044c14.051,0,25.48-11.431,25.48-25.481 v-95.157C270.33,171.588,296.033,142.856,296.033,108.22z"/> </g> <path style="fill:#D0BE44;" d="M150.069,450.207h35.31c4.873,0,8.828-3.946,8.828-8.828c0-4.882-3.955-8.828-8.828-8.828h-35.31 V450.207z"/> <path style="fill:#D0BE44;" d="M150.069,467.862v17.655h52.966c4.873,0,8.828-3.946,8.828-8.828c0-4.882-3.955-8.828-8.828-8.828 H150.069z"/> </g> <g> <path style="fill:#F5E050;" d="M326.621,26.483h-61.793c-4.873,0-8.828,3.946-8.828,8.828s3.955,8.828,8.828,8.828h61.793V26.483z "/> <path style="fill:#F5E050;" d="M211.862,26.483h-26.483v17.655h26.483c4.873,0,8.828-3.946,8.828-8.828 S216.735,26.483,211.862,26.483"/> </g> </g> </g>

</svg>