<svg viewBox="0 0 256 256" xmlns="http://www.w3.org/2000/svg" xmlns:xlink="http://www.w3.org/1999/xlink" aria-hidden="true" role="img" class="iconify iconify--noto" preserveAspectRatio="xMidYMid meet" fill="#000000">
  <g id="SVGRepo_bgCarrier" stroke-width="0"></g>
  <g id="SVGRepo_tracerCarrier" stroke-linecap="round" stroke-linejoin="round"></g>
  <g id="SVGRepo_iconCarrier">
    <path d="M57.64 20.92l-29.45 5.37s.35 29.12.04 42.77c-.31 13.65-.42 33-.2 35.45c.19 2.13 6.75 8.9 6.75 8.9l22.09 7.98l21.47-.77l18.71-8.74s2.79-3.75 3.32-5.02c.41-.97.03-28.13.03-41.06c0-10.89.55-40.46.55-40.46l-43.31-4.42z" fill="#feb502"></path>
    <path d="M28.3 109.44c.34 1.48 12.21 14.85 36.18 14.85s35.46-11.73 35.68-12.94c.22-1.21.26-4.66.26-4.66s-11.64 12.65-35.61 12.76c-24.31.11-36.8-15.08-36.8-15.08s-.05 3.59.29 5.07z" fill="#b0b0b0"></path>
    <path d="M38.42 10.35l-10.27 7.7s-.3 3.29-.29 4.84c.02 2.3.33 3.41.33 3.41s6.9 11.2 36.68 12c26.91.72 36.02-9.46 36.02-9.46s1.15-2.41 1.4-4.15c.42-2.87-.08-5.31-.08-5.31l-63.79-9.03z" fill="#e0e0e0"></path>
    <path d="M65.37 3.86C47.56 3.21 28.19 9.25 28.08 18.7c-.11 9.79 24.53 15.53 36.73 15.62c15.15.11 37.17-5.28 37.5-14.08c.34-8.79-17.46-15.67-36.94-16.38z" fill="#b0b0b0"></path>
    <path d="M65.37 16.72s-28.81 5.5-30.46 4.07c-1.65-1.43-2.97-2.64.77-5.94s14.06-7.74 30.57-7.04c17.32.74 30.22 6.61 31.05 11.27c.15.82-.08 2.32-1.02 2.84c-.21.12-5.47 2.66-5.47 2.66s-26.21-7.97-25.44-7.86z" fill="#858585"></path>
    <path d="M83.18 13.23c-11.17-3.16-29.44-3.98-39.12.31s-9.08 7.3-9.08 7.3s8.32 7.84 30.06 8.1c23.21.28 31.23-7.04 31.23-7.04s-.66-5.15-13.09-8.67z" fill="#e0e0e0"></path>
    <path d="M40.62 46.75c-.71.35-.77 1.65-.88 3.3c-.11 1.65-.44 49.16-.22 49.6s7.81 8.58 25.08 8.25c16.61-.32 24.74-6.21 24.74-6.21s.22-29.99.33-37.03c.11-7.04.91-15.29 0-16.12c-1.51-1.38-8.58.51-24.96.29s-22.77-2.74-24.09-2.08z" fill="#719921"></path>
    <path d="M50.17 59.93c-.67.33-1.07.68-1.2 1.84c-.17 1.5.49 2.44 1.24 2.86c.75.42 6.8.73 14.39.77c7.95.05 14.71-.19 14.71-.19s.83-.92.83-2.58c0-1.34-.38-1.94-.83-2.25c-.46-.31-9.32.1-15.07.06c-6.49-.05-13.41-.84-14.07-.51z" fill="#749b22"></path>
    <!-- Inlined spinach paths, transformed from viewBox="-25.6 -25.6 563.2 563.2" with scale(0.20) and translate(39 51) -->
    <g transform="translate(41.5 52.5) scale(0.090909)">
      <path fill="#d0d0d0" stroke="#000000" stroke-width="0.5" d="M474.089,265.702c-35.243-47.443-102.935-50.784-178.786-13.105c-75.852,37.664-94.267,107.57-129.097,156.498c-28.377,39.863-59.667,63.541-78.463,71.351c28.885-32.163,73.764-89.108,73.764-89.108s42.156-70.073,26.503-56.087c-12.39,11.089-91.235,92.482-123.374,125.74c4.762-19.686,23.488-54.381,58.865-88.616c43.164-41.767,152.767-101.863,178.652-182.485c25.885-80.646-11.374-184.7-65.033-189.686c-24.218-2.254-55.492,14.01-78.074,52.897c-24.265,41.799-54.38,76.137-66.43,110.936c-19.154,55.341,11.827,133.645-17.685,197.44c-20.82,45.022-56.944,80.218-33.885,132.066c0.841,1.889,2.111,2.889,3.603,3.246c0.39,6.271,4.04,9.58,10.327,8.85c0.58,1.453,1.755,2.572,3.787,3.144c54.714,15.026,84.106-25.964,125.493-53.294c58.659-38.743,86.655-8.747,145.092-19.296c42.863-7.723,61.508-38.783,99.196-69.034C463.611,339.006,488.83,285.554,474.089,265.702z M199.845,136.208c22.726-55.912,33.822-77.233,40.458-68.097c8.041,11.058-83.758,219.499-102.792,237.438C118.477,323.472,177.112,192.121,199.845,136.208z M325.934,347.531c-33.766,22.407-97.506,67.048-86.79,41.966c5.231-12.256,75.606-58.452,169.571-104.554C510.991,246.001,359.693,325.107,325.934,347.531z"></path>
    </g>
  </g>
</svg>