<svg version="1.1" id="Capa_1" xmlns="http://www.w3.org/2000/svg" xmlns:xlink="http://www.w3.org/1999/xlink" viewBox="0 0 58 58" xml:space="preserve" fill="#000000">
  <g id="SVGRepo_bgCarrier" stroke-width="0"></g>
  <g id="SVGRepo_tracerCarrier" stroke-linecap="round" stroke-linejoin="round"></g>
  <g id="SVGRepo_iconCarrier">
    <g>
      <rect x="10" y="10" style="fill:#8F6127;" width="38" height="38"></rect>
      <rect x="10" y="0" style="fill:#AD7E4E;" width="48" height="10"></rect>
      <rect x="48" y="10" style="fill:#CA965A;" width="10" height="48"></rect>
      <rect x="0" y="48" style="fill:#AD7E4E;" width="48" height="10"></rect>
      <rect x="0" y="0" style="fill:#CA965A;" width="10" height="48"></rect>
      <g>
        <circle style="fill:#E6E7E8;" cx="54" cy="3" r="1"></circle>
        <circle style="fill:#E6E7E8;" cx="50" cy="3" r="1"></circle>
        <circle style="fill:#E6E7E8;" cx="54" cy="7" r="1"></circle>
        <circle style="fill:#E6E7E8;" cx="50" cy="7" r="1"></circle>
        <circle style="fill:#E6E7E8;" cx="55" cy="54" r="1"></circle>
        <circle style="fill:#E6E7E8;" cx="55" cy="50" r="1"></circle>
        <circle style="fill:#E6E7E8;" cx="51" cy="54" r="1"></circle>
        <circle style="fill:#E6E7E8;" cx="51" cy="50" r="1"></circle>
        <circle style="fill:#E6E7E8;" cx="4" cy="55" r="1"></circle>
        <circle style="fill:#E6E7E8;" cx="8" cy="55" r="1"></circle>
        <circle style="fill:#E6E7E8;" cx="4" cy="51" r="1"></circle>
        <circle style="fill:#E6E7E8;" cx="8" cy="51" r="1"></circle>
        <circle style="fill:#E6E7E8;" cx="3" cy="4" r="1"></circle>
        <circle style="fill:#E6E7E8;" cx="3" cy="8" r="1"></circle>
        <circle style="fill:#E6E7E8;" cx="7" cy="4" r="1"></circle>
        <circle style="fill:#E6E7E8;" cx="7" cy="8" r="1"></circle>
      </g>
      <g>
        <rect x="3" y="36" style="fill:#AD7E4E;" width="2" height="12"></rect>
        <rect x="6" y="42" style="fill:#AD7E4E;" width="2" height="6"></rect>
        <rect x="10" y="3" style="fill:#8F6127;" width="8" height="2"></rect>
        <rect x="10" y="6" style="fill:#8F6127;" width="7" height="2"></rect>
        <rect x="40" y="54" style="fill:#8F6127;" width="8" height="2"></rect>
        <rect x="38" y="51" style="fill:#8F6127;" width="10" height="2"></rect>
        <rect x="54" y="10" style="fill:#AD7E4E;" width="2" height="7"></rect>
        <rect x="51" y="10" style="fill:#AD7E4E;" width="2" height="9"></rect>
      </g>
      <g>
        <rect x="43" y="10" style="fill:#70491E;" width="2" height="38"></rect>
        <rect x="33" y="10" style="fill:#70491E;" width="2" height="38"></rect>
        <rect x="13" y="10" style="fill:#70491E;" width="2" height="38"></rect>
        <rect x="23" y="10" style="fill:#70491E;" width="2" height="38"></rect>
      </g>
    </g>
  </g>
  <g transform="translate(5.5 16.82) scale(0.18)">
    <g id="SVGRepo_iconCarrier">
      <path d="M57.64 20.92l-29.45 5.37s.35 29.12.04 42.77c-.31 13.65-.42 33-.2 35.45c.19 2.13 6.75 8.9 6.75 8.9l22.09 7.98l21.47-.77l18.71-8.74s2.79-3.75 3.32-5.02c.41-.97.03-28.13.03-41.06c0-10.89.55-40.46.55-40.46l-43.31-4.42z" fill="#feb502"></path>
      <path d="M28.3 109.44c.34 1.48 12.21 14.85 36.18 14.85s35.46-11.73 35.68-12.94c.22-1.21.26-4.66.26-4.66s-11.64 12.65-35.61 12.76c-24.31.11-36.8-15.08-36.8-15.08s-.05 3.59.29 5.07z" fill="#b0b0b0"></path>
      <path d="M38.42 10.35l-10.27 7.7s-.3 3.29-.29 4.84c.02 2.3.33 3.41.33 3.41s6.9 11.2 36.68 12c26.91.72 36.02-9.46 36.02-9.46s1.15-2.41 1.4-4.15c.42-2.87-.08-5.31-.08-5.31l-63.79-9.03z" fill="#e0e0e0"></path>
      <path d="M65.37 3.86C47.56 3.21 28.19 9.25 28.08 18.7c-.11 9.79 24.53 15.53 36.73 15.62c15.15.11 37.17-5.28 37.5-14.08c.34-8.79-17.46-15.67-36.94-16.38z" fill="#b0b0b0"></path>
      <path d="M65.37 16.72s-28.81 5.5-30.46 4.07c-1.65-1.43-2.97-2.64.77-5.94s14.06-7.74 30.57-7.04c17.32.74 30.22 6.61 31.05 11.27c.15.82-.08 2.32-1.02 2.84c-.21.12-5.47 2.66-5.47 2.66s-26.21-7.97-25.44-7.86z" fill="#858585"></path>
      <path d="M83.18 13.23c-11.17-3.16-29.44-3.98-39.12.31s-9.08 7.3-9.08 7.3s8.32 7.84 30.06 8.1c23.21.28 31.23-7.04 31.23-7.04s-.66-5.15-13.09-8.67z" fill="#e0e0e0"></path>
      <path d="M40.62 46.75c-.71.35-.77 1.65-.88 3.3c-.11 1.65-.44 49.16-.22 49.6s7.81 8.58 25.08 8.25c16.61-.32 24.74-6.21 24.74-6.21s.22-29.99.33-37.03c.11-7.04.91-15.29 0-16.12c-1.51-1.38-8.58.51-24.96.29s-22.77-2.74-24.09-2.08z" fill="#719921"></path>
      <path d="M50.17 59.93c-.67.33-1.07.68-1.2 1.84c-.17 1.5.49 2.44 1.24 2.86c.75.42 6.8.73 14.39.77c7.95.05 14.71-.19 14.71-.19s.83-.92.83-2.58c0-1.34-.38-1.94-.83-2.25c-.46-.31-9.32.1-15.07.06c-6.49-.05-13.41-.84-14.07-.51z" fill="#749b22"></path>
      <g transform="translate(40 52) scale(1)">
        <path clip-rule="evenodd" d="M14.015,34.455l-2.313,0.839c-1.611-4.428-4.206-12.453-0.489-16.182 c2.909-2.914,7.903-2.399,10.473,0.726L19.789,21.4c-1.635-1.992-4.961-2.427-6.83-0.553 C10.272,23.539,12.828,31.191,14.015,34.455 M30.328,10.765c-0.803,1.536-2.143,2.587-4.21,3.149 c-0.541-2.066-0.301-3.753,0.629-5.219c0.933-1.469,2.549-2.799,4.76-4.114C31.474,7.159,31.133,9.226,30.328,10.765z M45.275,24.359c0-6.961-5.92-12.361-12.838-11.677c2.261-3.634,1.9-8.579,1.714-12.682c-3.455,1.792-7.582,3.805-9.733,7.151 c-0.622-1.879-1.394-3.705-2.323-5.46l-3.182,1.516c1.858,3.427,3.613,7.224,4.347,11.456c-7.94-5.069-18.534-0.049-18.534,9.698 c0.022,5.967,2.899,15.34,6.224,20.276C13.093,47.818,15.796,50,19.072,50c1.879,0,4.197-1.001,5.93-1.577 c1.768,0.587,4.037,1.577,5.948,1.569c3.262-0.015,5.967-2.203,8.116-5.386C42.414,39.646,45.277,30.363,45.275,24.359z" fill-rule="evenodd" fill="#d0d0d0"></path>
      </g>
    </g>
  </g>
  <g transform="translate(29.35 16.82) scale(0.18)">
    <g id="SVGRepo_iconCarrier">
      <path d="M57.64 20.92l-29.45 5.37s.35 29.12.04 42.77c-.31 13.65-.42 33-.2 35.45c.19 2.13 6.75 8.9 6.75 8.9l22.09 7.98l21.47-.77l18.71-8.74s2.79-3.75 3.32-5.02c.41-.97.03-28.13.03-41.06c0-10.89.55-40.46.55-40.46l-43.31-4.42z" fill="#feb502"></path>
      <path d="M28.3 109.44c.34 1.48 12.21 14.85 36.18 14.85s35.46-11.73 35.68-12.94c.22-1.21.26-4.66.26-4.66s-11.64 12.65-35.61 12.76c-24.31.11-36.8-15.08-36.8-15.08s-.05 3.59.29 5.07z" fill="#b0b0b0"></path>
      <path d="M38.42 10.35l-10.27 7.7s-.3 3.29-.29 4.84c.02 2.3.33 3.41.33 3.41s6.9 11.2 36.68 12c26.91.72 36.02-9.46 36.02-9.46s1.15-2.41 1.4-4.15c.42-2.87-.08-5.31-.08-5.31l-63.79-9.03z" fill="#e0e0e0"></path>
      <path d="M65.37 3.86C47.56 3.21 28.19 9.25 28.08 18.7c-.11 9.79 24.53 15.53 36.73 15.62c15.15.11 37.17-5.28 37.5-14.08c.34-8.79-17.46-15.67-36.94-16.38z" fill="#b0b0b0"></path>
      <path d="M65.37 16.72s-28.81 5.5-30.46 4.07c-1.65-1.43-2.97-2.64.77-5.94s14.06-7.74 30.57-7.04c17.32.74 30.22 6.61 31.05 11.27c.15.82-.08 2.32-1.02 2.84c-.21.12-5.47 2.66-5.47 2.66s-26.21-7.97-25.44-7.86z" fill="#858585"></path>
      <path d="M83.18 13.23c-11.17-3.16-29.44-3.98-39.12.31s-9.08 7.3-9.08 7.3s8.32 7.84 30.06 8.1c23.21.28 31.23-7.04 31.23-7.04s-.66-5.15-13.09-8.67z" fill="#e0e0e0"></path>
      <path d="M40.62 46.75c-.71.35-.77 1.65-.88 3.3c-.11 1.65-.44 49.16-.22 49.6s7.81 8.58 25.08 8.25c16.61-.32 24.74-6.21 24.74-6.21s.22-29.99.33-37.03c.11-7.04.91-15.29 0-16.12c-1.51-1.38-8.58.51-24.96.29s-22.77-2.74-24.09-2.08z" fill="#719921"></path>
      <path d="M50.17 59.93c-.67.33-1.07.68-1.2 1.84c-.17 1.5.49 2.44 1.24 2.86c.75.42 6.8.73 14.39.77c7.95.05 14.71-.19 14.71-.19s.83-.92.83-2.58c0-1.34-.38-1.94-.83-2.25c-.46-.31-9.32.1-15.07.06c-6.49-.05-13.41-.84-14.07-.51z" fill="#749b22"></path>
      <g transform="translate(42 54) scale(0.085)">
        <path d="M325.859,177.546c-14.763-11.597-66.833-45.559-116.352,3.951c-1.741,1.741-3.593,3.712-5.393,5.572l4.821,1.314 c0.998,0.145,41.83,7.629,61.636,27.426c3.328,3.336,3.328,8.738,0,12.066c-1.673,1.673-3.857,2.5-6.042,2.5 c-2.176,0-4.361-0.828-6.033-2.5c-13.321-13.32-42.991-21.018-53.299-22.861l-14.234-3.849 c-10.061,11.17-20.838,23.979-32.145,38.298l5.103,1.109c11.733,2.893,40.149,11.145,55.45,26.436 c3.328,3.337,3.328,8.738,0,12.066c-1.673,1.673-3.857,2.5-6.042,2.5c-2.176,0-4.361-0.828-6.033-2.5 c-10.01-10.01-30.959-17.869-47.232-21.879l-12.809-2.782c-9.131,12.049-18.543,25.037-28.151,38.903l5.828,1.766 c10.923,3.396,31.002,10.897,43.238,23.125c3.328,3.337,3.328,8.738,0,12.066c-1.672,1.673-3.857,2.5-6.042,2.5 c-2.176,0-4.361-0.828-6.033-2.5c-6.938-6.938-20.463-13.995-36.181-18.876l-10.897-3.319 c-9.95,14.814-20.045,30.566-30.216,47.164l6.707,2.927c9.651,4.028,24.047,12.365,31.462,19.772 c3.328,3.337,3.328,8.738,0,12.066c-1.672,1.673-3.857,2.5-6.042,2.5c-2.176,0-4.361-0.828-6.033-2.5 c-5.393-5.393-17.843-12.706-26.095-16.145l-8.951-3.908c-23.245,38.989-46.652,82.423-69.035,129.852 c-1.536,3.251-0.862,7.125,1.681,9.668c1.638,1.638,3.823,2.5,6.042,2.5c1.229,0,2.475-0.265,3.635-0.811 c153.037-72.218,264.781-155.153,318.31-208.691c49.51-49.51,15.548-101.572,3.951-116.352 C331.935,182.93,329.05,180.046,325.859,177.546z" fill="#d0d0d0"></path>
        <path d="M498.113,89.471c-1.109-1.109-2.287-2.15-3.558-3.157c7.27-17.434,3.516-38.118-10.189-51.823 c-14.379-14.379-35.849-17.655-53.564-9.267c-2.193-4.207-4.983-8.047-8.294-11.358c-18.492-18.483-48.572-18.483-67.055,0 c-13.065,13.065-16.947,32.41-11.042,49.212c-8.789,1.877-16.887,6.212-23.322,12.646c-18.492,18.492-18.483,48.572,0,67.055 c6.502,6.502,14.66,10.803,23.381,12.664l30.993-30.993v-22.067c0-4.719,3.823-8.533,8.533-8.533 c4.719,0,8.533,3.814,8.533,8.533v5.001l17.067-17.067V68.248c0-4.719,3.823-8.533,8.533-8.533c4.719,0,8.533,3.814,8.533,8.533 v17.067h8.533c4.719,0,8.533,3.814,8.533,8.533c0,4.71-3.814,8.533-8.533,8.533h-13.525l-17.067,17.067h13.525 c4.719,0,8.533,3.814,8.533,8.533c0,4.71-3.814,8.533-8.533,8.533h-30.592l-30.916,30.908c1.86,8.747,6.059,16.947,12.578,23.467 c9.242,9.25,21.385,13.867,33.528,13.867c12.143,0,24.286-4.625,33.527-13.867c6.434-6.434,10.769-14.532,12.646-23.322 c16.811,5.897,36.147,2.022,49.212-11.042C516.596,138.042,516.604,107.962,498.113,89.471z" fill="#d0d0d0"></path>
      </g>
    </g>
  </g>
  <g transform="translate(14.44 14.76) scale(0.22)">
    <g id="SVGRepo_iconCarrier">
      <path d="M57.64 20.92l-29.45 5.37s.35 29.12.04 42.77c-.31 13.65-.42 33-.2 35.45c.19 2.13 6.75 8.9 6.75 8.9l22.09 7.98l21.47-.77l18.71-8.74s2.79-3.75 3.32-5.02c.41-.97.03-28.13.03-41.06c0-10.89.55-40.46.55-40.46l-43.31-4.42z" fill="#feb502"></path>
      <path d="M28.3 109.44c.34 1.48 12.21 14.85 36.18 14.85s35.46-11.73 35.68-12.94c.22-1.21.26-4.66.26-4.66s-11.64 12.65-35.61 12.76c-24.31.11-36.8-15.08-36.8-15.08s-.05 3.59.29 5.07z" fill="#b0b0b0"></path>
      <path d="M38.42 10.35l-10.27 7.7s-.3 3.29-.29 4.84c.02 2.3.33 3.41.33 3.41s6.9 11.2 36.68 12c26.91.72 36.02-9.46 36.02-9.46s1.15-2.41 1.4-4.15c.42-2.87-.08-5.31-.08-5.31l-63.79-9.03z" fill="#e0e0e0"></path>
      <path d="M65.37 3.86C47.56 3.21 28.19 9.25 28.08 18.7c-.11 9.79 24.53 15.53 36.73 15.62c15.15.11 37.17-5.28 37.5-14.08c.34-8.79-17.46-15.67-36.94-16.38z" fill="#b0b0b0"></path>
      <path d="M65.37 16.72s-28.81 5.5-30.46 4.07c-1.65-1.43-2.97-2.64.77-5.94s14.06-7.74 30.57-7.04c17.32.74 30.22 6.61 31.05 11.27c.15.82-.08 2.32-1.02 2.84c-.21.12-5.47 2.66-5.47 2.66s-26.21-7.97-25.44-7.86z" fill="#858585"></path>
      <path d="M83.18 13.23c-11.17-3.16-29.44-3.98-39.12.31s-9.08 7.3-9.08 7.3s8.32 7.84 30.06 8.1c23.21.28 31.23-7.04 31.23-7.04s-.66-5.15-13.09-8.67z" fill="#e0e0e0"></path>
      <path d="M40.62 46.75c-.71.35-.77 1.65-.88 3.3c-.11 1.65-.44 49.16-.22 49.6s7.81 8.58 25.08 8.25c16.61-.32 24.74-6.21 24.74-6.21s.22-29.99.33-37.03c.11-7.04.91-15.29 0-16.12c-1.51-1.38-8.58.51-24.96.29s-22.77-2.74-24.09-2.08z" fill="#719921"></path>
      <path d="M50.17 59.93c-.67.33-1.07.68-1.2 1.84c-.17 1.5.49 2.44 1.24 2.86c.75.42 6.8.73 14.39.77c7.95.05 14.71-.19 14.71-.19s.83-.92.83-2.58c0-1.34-.38-1.94-.83-2.25c-.46-.31-9.32.1-15.07.06c-6.49-.05-13.41-.84-14.07-.51z" fill="#749b22"></path>
      <g transform="translate(38 52) scale(2.2)">
        <path d="M22,11.71C21.37,9.74,19,6,14.5,6A10.44,10.44,0,0,0,8.19,8.37a6.64,6.64,0,0,0-.9-.68,4.62,4.62,0,0,0-4.84,0A1,1,0,0,0,2,8.51,5.43,5.43,0,0,0,3.42,12,5.43,5.43,0,0,0,2,15.49a1,1,0,0,0,.45,0.83,4.6,4.6,0,0,0,4.84,0,5.4,5.4,0,0,0,.9-.67A10.44,10.44,0,0,0,14.5,18C19,18,21.37,14.26,22,12.29A1.14,1.14,0,0,0,22,11.71Z" fill="#d0d0d0"></path>
      </g>
    </g>
  </g>
</svg>