<svg viewBox="0 0 256 256" xmlns="http://www.w3.org/2000/svg" xmlns:xlink="http://www.w3.org/1999/xlink" aria-hidden="true" role="img" class="iconify iconify--noto" preserveAspectRatio="xMidYMid meet" fill="#000000">
  <g id="SVGRepo_bgCarrier" stroke-width="0"></g>
  <g id="SVGRepo_tracerCarrier" stroke-linecap="round" stroke-linejoin="round"></g>
  <g id="SVGRepo_iconCarrier">
    <path d="M57.64 20.92l-29.45 5.37s.35 29.12.04 42.77c-.31 13.65-.42 33-.2 35.45c.19 2.13 6.75 8.9 6.75 8.9l22.09 7.98l21.47-.77l18.71-8.74s2.79-3.75 3.32-5.02c.41-.97.03-28.13.03-41.06c0-10.89.55-40.46.55-40.46l-43.31-4.42z" fill="#feb502"></path>
    <path d="M28.3 109.44c.34 1.48 12.21 14.85 36.18 14.85s35.46-11.73 35.68-12.94c.22-1.21.26-4.66.26-4.66s-11.64 12.65-35.61 12.76c-24.31.11-36.8-15.08-36.8-15.08s-.05 3.59.29 5.07z" fill="#b0b0b0"></path>
    <path d="M38.42 10.35l-10.27 7.7s-.3 3.29-.29 4.84c.02 2.3.33 3.41.33 3.41s6.9 11.2 36.68 12c26.91.72 36.02-9.46 36.02-9.46s1.15-2.41 1.4-4.15c.42-2.87-.08-5.31-.08-5.31l-63.79-9.03z" fill="#e0e0e0"></path>
    <path d="M65.37 3.86C47.56 3.21 28.19 9.25 28.08 18.7c-.11 9.79 24.53 15.53 36.73 15.62c15.15.11 37.17-5.28 37.5-14.08c.34-8.79-17.46-15.67-36.94-16.38z" fill="#b0b0b0"></path>
    <path d="M65.37 16.72s-28.81 5.5-30.46 4.07c-1.65-1.43-2.97-2.64.77-5.94s14.06-7.74 30.57-7.04c17.32.74 30.22 6.61 31.05 11.27c.15.82-.08 2.32-1.02 2.84c-.21.12-5.47 2.66-5.47 2.66s-26.21-7.97-25.44-7.86z" fill="#858585"></path>
    <path d="M83.18 13.23c-11.17-3.16-29.44-3.98-39.12.31s-9.08 7.3-9.08 7.3s8.32 7.84 30.06 8.1c23.21.28 31.23-7.04 31.23-7.04s-.66-5.15-13.09-8.67z" fill="#e0e0e0"></path>
    <path d="M40.62 46.75c-.71.35-.77 1.65-.88 3.3c-.11 1.65-.44 49.16-.22 49.6s7.81 8.58 25.08 8.25c16.61-.32 24.74-6.21 24.74-6.21s.22-29.99.33-37.03c.11-7.04.91-15.29 0-16.12c-1.51-1.38-8.58.51-24.96.29s-22.77-2.74-24.09-2.08z" fill="#719921"></path>
    <path d="M50.17 59.93c-.67.33-1.07.68-1.2 1.84c-.17 1.5.49 2.44 1.24 2.86c.75.42 6.8.73 14.39.77c7.95.05 14.71-.19 14.71-.19s.83-.92.83-2.58c0-1.34-.38-1.94-.83-2.25c-.46-.31-9.32.1-15.07.06c-6.49-.05-13.41-.84-14.07-.51z" fill="#749b22"></path>
    <!-- Inlined apple paths, transformed from viewBox="0 0 50 50" with scale(0.19) and translate(40 52) -->
    <g transform="translate(40 52) scale(1)">
      <path clip-rule="evenodd" d="M14.015,34.455l-2.313,0.839c-1.611-4.428-4.206-12.453-0.489-16.182 c2.909-2.914,7.903-2.399,10.473,0.726L19.789,21.4c-1.635-1.992-4.961-2.427-6.83-0.553 C10.272,23.539,12.828,31.191,14.015,34.455 M30.328,10.765c-0.803,1.536-2.143,2.587-4.21,3.149 c-0.541-2.066-0.301-3.753,0.629-5.219c0.933-1.469,2.549-2.799,4.76-4.114C31.474,7.159,31.133,9.226,30.328,10.765z M45.275,24.359c0-6.961-5.92-12.361-12.838-11.677c2.261-3.634,1.9-8.579,1.714-12.682c-3.455,1.792-7.582,3.805-9.733,7.151 c-0.622-1.879-1.394-3.705-2.323-5.46l-3.182,1.516c1.858,3.427,3.613,7.224,4.347,11.456c-7.94-5.069-18.534-0.049-18.534,9.698 c0.022,5.967,2.899,15.34,6.224,20.276C13.093,47.818,15.796,50,19.072,50c1.879,0,4.197-1.001,5.93-1.577 c1.768,0.587,4.037,1.577,5.948,1.569c3.262-0.015,5.967-2.203,8.116-5.386C42.414,39.646,45.277,30.363,45.275,24.359z" fill-rule="evenodd" fill="#d0d0d0"></path>
    </g>
  </g>
</svg>