<?xml version="1.0" encoding="iso-8859-1"?>
<!DOCTYPE svg PUBLIC "-//W3C//DTD SVG 1.1//EN" "http://www.w3.org/Graphics/SVG/1.1/DTD/svg11.dtd">
<svg height="800px" width="800px" version="1.1" id="Layer_1" xmlns="http://www.w3.org/2000/svg" xmlns:xlink="http://www.w3.org/1999/xlink" 
	 viewBox="-51.2 -51.2 614.40 614.40" xml:space="preserve">
  <!-- Ham paths -->
  <path style="fill:#E6E9ED;" d="M298.476,287.998h151.342c4.391,12.438,16.233,21.344,30.171,21.344
	c17.671,0,31.999-14.344,31.999-32c0-8.211-3.078-15.68-8.156-21.352c5.078-5.656,8.156-13.125,8.156-21.328
	c0-17.671-14.328-31.999-31.999-31.999c-13.938,0-25.78,8.906-30.171,21.327H298.476V287.998z"/>
  <path style="fill:#E5675A;" d="M384.132,255.474c0-125.326-309.462-170.137-309.462-170.137V426.65
	C74.67,426.65,384.132,380.808,384.132,255.474z"/>
  <g style="opacity:0.1;">
	<path d="M74.67,405.34v21.311c0,0,309.462-45.842,309.462-171.176c0-3.625-0.266-7.171-0.766-10.656
		C366.491,362.09,74.67,405.34,74.67,405.34z"/>
  </g>
  <path style="fill:#EFACA0;" d="M149.324,255.99c0-94.248-33.421-170.653-74.654-170.653C33.421,85.337,0,161.742,0,255.99
	c0,94.256,33.421,170.66,74.67,170.66C115.903,426.65,149.324,350.246,149.324,255.99z"/>
  <g style="opacity:0.1;">
	<path d="M106.669,255.99c0-58.905-14.328-106.654-31.999-106.654c-17.672,0-31.999,47.749-31.999,106.654
		c0,58.912,14.327,106.662,31.999,106.662C92.341,362.652,106.669,314.902,106.669,255.99z"/>
  </g>
  <path style="fill:#E6E9ED;" d="M74.67,277.342c-5.891,0-10.672-9.57-10.672-21.352c0-11.781,4.781-21.328,10.672-21.328
	s10.656,9.547,10.656,21.328S80.56,277.342,74.67,277.342z"/>
  
  <!-- Scaled and positioned honey logo -->
  <g transform="translate(352 312) scale(0.55)">
    <g id="XMLID_1416_">
      <path id="XMLID_1417_" style="fill:#EEEEEF;" d="M216,60h-1V30H65v30h-1c-18.777,0-34,15.223-34,34v46h220V94
		C250,75.223,234.777,60,216,60z"/>
      <path id="XMLID_1418_" style="fill:#DEDDE0;" d="M140,30H65v30h-1c-18.777,0-34,15.223-34,34v46h110V30z"/>
      <path id="XMLID_1419_" style="fill:#FFAD41;" d="M140,120H30v126c0,18.777,15.223,34,34,34h152c18.777,0,34-15.223,34-34V120H140z"/>
      <path id="XMLID_1420_" style="fill:#FF9811;" d="M140,120H30v126c0,18.777,15.223,34,34,34h76V120z"/>
      <polygon id="XMLID_1421_" style="fill:#FFFFFF;" points="118.35,237.5 96.698,200 118.35,162.5 161.65,162.5 183.302,200 
		161.65,237.5 	"/>
      <polygon id="XMLID_1422_" style="fill:#FFE98F;" points="118.35,237.5 96.698,200 118.35,162.5 140,162.5 140,237.5 	"/>
      <path id="XMLID_1423_" style="fill:#BD720D;" d="M220,0h-35l-45,40h80c11.046,0,20-8.954,20-20S231.046,0,220,0z"/>
      <path id="XMLID_1424_" style="fill:#804C09;" d="M95,0H60C48.954,0,40,8.954,40,20s8.954,20,20,20h80L95,0z"/>
      <path id="XMLID_1425_" style="fill:#FFAD41;" d="M95,0v85c0,8.284,6.716,15,15,15s15-6.716,15-15V55c0-8.284,6.716-15,15-15
		s15,6.716,15,15v15c0,8.284,6.716,15,15,15s15-6.716,15-15v-5c0-8.284,0-65,0-65H95z"/>
      <path id="XMLID_1426_" style="fill:#FF9811;" d="M140,0H95v85c0,8.284,6.716,15,15,15s15-6.716,15-15V55c0-8.284,6.716-15,15-15
		C140.506,40,140,0,140,0z"/>
    </g>
  </g>
</svg>