<!DOCTYPE svg PUBLIC "-//W3C//DTD SVG 1.1//EN" "http://www.w3.org/Graphics/SVG/1.1/DTD/svg11.dtd">
<!-- Uploaded to: SVG Repo, www.svgrepo.com, Transformed by: SVG Repo Mixer Tools -->
<svg height="800px" width="800px" version="1.1" id="Layer_1" xmlns="http://www.w3.org/2000/svg" xmlns:xlink="http://www.w3.org/1999/xlink" viewBox="-34.51 -34.51 414.15 414.15" xml:space="preserve" fill="#000000">
<g id="SVGRepo_bgCarrier" stroke-width="0"/>
<g id="SVGRepo_tracerCarrier" stroke-linecap="round" stroke-linejoin="round"/>
<g id="SVGRepo_iconCarrier"> <g> <path style="fill:#e1e1e1;" d="M264.25,301.7c-2.45,3.01-5.08,5.91-7.88,8.71c-23.14,23.14-53.47,34.72-83.8,34.72 s-60.66-11.58-83.81-34.72c-22.86-22.86-34.71-53.2-34.71-83.84c0-21.31,5.74-42.77,17.5-61.94l21.16-34.48L172.57,0l31.67,51.62 l24.28,39.56l45.06,73.45C300.18,207.99,295.971,263.03,264.25,301.7z"/> <path style="fill:#f5f5f5;" d="M264.25,301.7L92.71,130.15L172.57,0l31.67,51.62l24.28,39.56l45.06,73.45 C300.18,207.99,295.971,263.03,264.25,301.7z"/> </g> </g>
</svg>