<!DOCTYPE svg PUBLIC "-//W3C//DTD SVG 1.1//EN" "http://www.w3.org/Graphics/SVG/1.1/DTD/svg11.dtd">
<!-- Uploaded to: SVG Repo, www.svgrepo.com, Transformed by: SVG Repo Mixer Tools -->
<svg height="800px" width="800px" version="1.1" id="Layer_1" xmlns="http://www.w3.org/2000/svg" xmlns:xlink="http://www.w3.org/1999/xlink" viewBox="-51.2 -51.2 614.40 614.40" xml:space="preserve" fill="#000000">
<g id="SVGRepo_bgCarrier" stroke-width="0"/>
<g id="SVGRepo_tracerCarrier" stroke-linecap="round" stroke-linejoin="round"/>
<g id="SVGRepo_iconCarrier"> <path style="fill:#A11212;" d="M422.195,318.563l-150.9,150.899c-52.667,52.667-138.451,57.056-190.959,9.656 c-15.321-13.725-26.731-30.084-34.234-47.8C25.195,382.161,34.691,323.031,75.07,282.652c20.987-20.987,31.92-51.391,29.686-83.31 C94.7,46.288,264.274-52.742,390.994,29.93c11.571,7.58,21.945,16.041,31.202,25.297 C493.935,127.124,495.691,245.068,422.195,318.563z"/> <path style="fill:#890F0F;" d="M422.195,318.563l-150.9,150.899c-52.667,52.667-138.451,57.056-190.959,9.656 c-15.321-13.725-26.731-30.084-34.234-47.8L422.195,55.226C493.935,127.124,495.691,245.068,422.195,318.563z"/> <g> <path style="fill:#F5F5F5;" d="M380.86,263.66c5.666-6.782,5.267-16.757-1.037-23.063c-6.304-6.145-16.279-6.542-22.982-0.798 c-18.353,15.961-41.894,24.658-66.313,24.658c-22.185,0-42.373-6.943-58.812-18.753c-11.411-8.06-20.987-18.433-28.248-30.324 c-8.459-14.046-29.925-9.018-31.361,7.261c-3.512,41.335-20.987,79.718-49.156,107.888c-12.129,12.129-18.673,27.611-19.631,43.57 c-1.277,19.79,6.065,40.059,22.344,54.743c27.131,24.418,71.18,19.31,97.753-7.262C383.653,261.346,375.673,269.646,380.86,263.66z "/> <path style="fill:#F5F5F5;" d="M358.197,162.954c0-11.81-3.032-23.779-9.416-34.314c-2.793-4.867-6.225-9.415-10.375-13.565 c-26.414-26.414-69.346-26.413-95.759,0s-26.414,69.345,0,95.759c4.15,4.15,8.699,7.581,13.486,10.454 c25.936,15.242,60.009,11.81,82.273-10.454C351.573,197.667,358.198,180.351,358.197,162.954z"/> </g> <g> <path style="fill:#D0D0D0;" d="M223.417,421.583c-26.573,26.573-70.622,31.681-97.753,7.262 c-16.279-14.683-23.621-34.954-22.344-54.743l128.396-128.396c16.439,11.81,36.627,18.753,58.812,18.753 c24.419,0,47.96-8.698,66.313-24.658c6.703-5.745,16.677-5.347,22.982,0.798c6.304,6.304,6.703,16.28,1.037,23.063 C375.673,269.646,383.653,261.346,223.417,421.583z"/> <path style="fill:#D0D0D0;" d="M338.407,210.834c-22.264,22.264-56.337,25.695-82.273,10.454l92.646-92.646 c6.384,10.534,9.416,22.503,9.416,34.314C358.198,180.351,351.573,197.667,338.407,210.834z"/> </g> </g>
</svg>