<svg version="1.1" id="Layer_1" xmlns="http://www.w3.org/2000/svg" xmlns:xlink="http://www.w3.org/1999/xlink" viewBox="-25.6 -25.6 563.2 563.2" xml:space="preserve">
  <g id="SVGRepo_bgCarrier" stroke-width="0"></g>
  <g id="SVGRepo_tracerCarrier" stroke-linecap="round" stroke-linejoin="round"></g>
  <g id="SVGRepo_iconCarrier">
    <!-- Left end: Dark gray -->
    <path style="fill:#333333;" d="M0.009,181.338c0,5.89,4.773,10.664,10.664,10.664h78.638v-21.335H10.672 C4.782,170.666,0.009,175.447,0.009,181.338z"></path>
    <path style="fill:#555555;" d="M21.344,138.667c0,5.898,4.773,10.672,10.664,10.672h46.521v-21.335H32.007 C26.117,128.004,21.344,132.777,21.344,138.667z"></path>
    <g>
      <path style="fill:#333333;" d="M10.672,106.668h67.857V85.341H10.672c-5.891,0-10.664,4.773-10.664,10.664 S4.782,106.668,10.672,106.668z"></path>
      <path style="fill:#333333;" d="M10.672,21.344h67.857V0.009H10.672c-5.89,0-10.663,4.773-10.663,10.663S4.782,21.344,10.672,21.344 z"></path>
    </g>
    <path style="fill:#555555;" d="M21.344,53.342c0,5.891,4.773,10.664,10.664,10.664h46.521V42.671H32.007 C26.117,42.671,21.344,47.452,21.344,53.342z"></path>
    <!-- Right end: Dark gray -->
    <path style="fill:#333333;" d="M511.989,330.652c0-5.875-4.781-10.655-10.655-10.655h-78.638v21.343h78.638 C507.208,341.34,511.989,336.559,511.989,330.652z"></path>
    <path style="fill:#555555;" d="M433.462,362.651v21.343h46.529c5.891,0,10.655-4.781,10.655-10.656 c0-5.905-4.765-10.687-10.655-10.687L433.462,362.651L433.462,362.651z"></path>
    <g>
      <path style="fill:#333333;" d="M501.334,405.338h-67.872v21.312h67.872c5.874,0,10.655-4.766,10.655-10.655 C511.989,410.103,507.208,405.338,501.334,405.338z"></path>
      <path style="fill:#333333;" d="M501.334,490.646h-67.872v21.343h67.872c5.874,0,10.655-4.781,10.655-10.655 C511.989,495.428,507.208,490.646,501.334,490.646z"></path>
    </g>
    <path style="fill:#555555;" d="M490.646,458.647c0-5.875-4.765-10.656-10.655-10.656h-46.529v21.344h46.529 C485.882,469.335,490.646,464.554,490.646,458.647z"></path>
    <!-- Middle: Medium gray -->
    <polygon style="fill:#777777;" points="511.989,192.001 111.895,476.022 0.009,319.997 400.213,35.835 "></polygon>
    <!-- Middle: Light gray -->
    <g>
      <rect x="64.009" y="0" style="fill:#999999;" width="447.98" height="191.99"></rect>
      <rect y="319.999" style="fill:#999999;" width="447.98" height="191.99"></rect>
    </g>
  </g>
</svg>