<!DOCTYPE svg PUBLIC "-//W3C//DTD SVG 1.1//EN" "http://www.w3.org/Graphics/SVG/1.1/DTD/svg11.dtd">
<!-- Uploaded to: SVG Repo, www.svgrepo.com, Transformed by: SVG Repo Mixer Tools -->
<svg version="1.1" id="Layer_1" xmlns="http://www.w3.org/2000/svg" xmlns:xlink="http://www.w3.org/1999/xlink" viewBox="-51.19 -51.19 614.26 614.26" xml:space="preserve" width="800px" height="800px" fill="#000000">
<g id="SVGRepo_bgCarrier" stroke-width="0"/>
<g id="SVGRepo_tracerCarrier" stroke-linecap="round" stroke-linejoin="round"/>
<g id="SVGRepo_iconCarrier"> <path style="fill:#F2F2F2;" d="M341.247,113.317c0,5.889-4.764,10.654-10.654,10.654H181.284c-5.89,0-10.654-4.765-10.654-10.654 V10.67c0-5.89,4.764-10.67,10.654-10.67h149.309c5.891,0,10.654,4.78,10.654,10.67V113.317z"/> <g> <path style="fill:#E6E6E6;" d="M202.622,0v21.339c0,5.89,4.765,10.654,10.654,10.654c5.89,0,10.669-4.765,10.669-10.654V0H202.622z "/> <path style="fill:#E6E6E6;" d="M245.269,0v21.339c0,5.89,4.78,10.654,10.669,10.654s10.67-4.765,10.67-10.654V0H245.269z"/> <path style="fill:#E6E6E6;" d="M287.93,0v21.339c0,5.89,4.781,10.654,10.67,10.654s10.654-4.765,10.654-10.654V0H287.93z"/> </g> <path style="fill:#D9D9D9;" d="M405.231,501.228c0,5.89-4.764,10.654-10.652,10.654H117.298c-5.89,0-10.654-4.765-10.654-10.654 V170.632l63.985-85.309h170.617l63.984,85.309L405.231,501.228L405.231,501.228z"/> <rect x="106.648" y="202.621" style="fill:#F2F2F2;" width="298.59" height="213.28"/> <path style="fill:#FFFFFF;" d="M309.254,319.926c0,29.446-23.869,53.331-53.316,53.331c-29.446,0-53.316-23.885-53.316-53.331 s42.272-74.624,53.316-74.624C266.999,245.303,309.254,290.48,309.254,319.926z"/> </g>
</svg>